<mxfile host="65bd71144e">
    <diagram id="FjbKU2TkHf-FgcIYEONi" name="Page-1">
        <mxGraphModel dx="1416" dy="827" grid="1" gridSize="10" guides="1" tooltips="1" connect="1" arrows="1" fold="1" page="1" pageScale="1" pageWidth="1654" pageHeight="1169" math="0" shadow="0">
            <root>
                <mxCell id="0"/>
                <mxCell id="1" parent="0"/>
                <mxCell id="OOJPEmCvYnQpd_MHclPF-3" value="Zarząd firmy" style="text;html=1;align=center;verticalAlign=middle;resizable=0;points=[];autosize=1;strokeColor=none;fillColor=none;rotation=-90;" parent="1" vertex="1">
                    <mxGeometry x="60" y="570" width="80" height="20" as="geometry"/>
                </mxCell>
                <mxCell id="OOJPEmCvYnQpd_MHclPF-6" style="edgeStyle=none;html=1;entryX=0;entryY=0.5;entryDx=0;entryDy=0;" parent="1" source="OOJPEmCvYnQpd_MHclPF-4" target="2" edge="1">
                    <mxGeometry relative="1" as="geometry"/>
                </mxCell>
                <mxCell id="OOJPEmCvYnQpd_MHclPF-4" value="" style="ellipse;whiteSpace=wrap;html=1;aspect=fixed;strokeWidth=1;" parent="1" vertex="1">
                    <mxGeometry x="150" y="550" width="60" height="60" as="geometry"/>
                </mxCell>
                <mxCell id="2" value="Zlecenie wykonania systemu podwykonawcy" style="rounded=0;whiteSpace=wrap;html=1;" parent="1" vertex="1">
                    <mxGeometry x="270" y="550" width="120" height="60" as="geometry"/>
                </mxCell>
                <mxCell id="OOJPEmCvYnQpd_MHclPF-5" value="" style="endArrow=none;dashed=1;html=1;" parent="1" edge="1">
                    <mxGeometry width="50" height="50" relative="1" as="geometry">
                        <mxPoint x="30" y="430" as="sourcePoint"/>
                        <mxPoint x="2840" y="430" as="targetPoint"/>
                    </mxGeometry>
                </mxCell>
                <mxCell id="t8X6_hmyEkohMRzOjcAu-3" value="Podwykonawca" style="text;html=1;align=center;verticalAlign=middle;resizable=0;points=[];autosize=1;strokeColor=none;fillColor=none;rotation=-90;" parent="1" vertex="1">
                    <mxGeometry x="50" y="840" width="100" height="20" as="geometry"/>
                </mxCell>
                <mxCell id="OOJPEmCvYnQpd_MHclPF-7" value="" style="endArrow=none;dashed=1;html=1;" parent="1" edge="1">
                    <mxGeometry width="50" height="50" relative="1" as="geometry">
                        <mxPoint x="30" y="710" as="sourcePoint"/>
                        <mxPoint x="2840" y="710" as="targetPoint"/>
                    </mxGeometry>
                </mxCell>
                <mxCell id="OOJPEmCvYnQpd_MHclPF-8" value="" style="endArrow=none;dashed=1;html=1;" parent="1" edge="1">
                    <mxGeometry width="50" height="50" relative="1" as="geometry">
                        <mxPoint x="30" y="1000" as="sourcePoint"/>
                        <mxPoint x="2840" y="1000" as="targetPoint"/>
                    </mxGeometry>
                </mxCell>
                <mxCell id="OOJPEmCvYnQpd_MHclPF-11" style="edgeStyle=none;html=1;entryX=0;entryY=0.5;entryDx=0;entryDy=0;" parent="1" source="OOJPEmCvYnQpd_MHclPF-9" target="3" edge="1">
                    <mxGeometry relative="1" as="geometry"/>
                </mxCell>
                <mxCell id="OOJPEmCvYnQpd_MHclPF-9" value="Przyjęcie zlecenia" style="rounded=0;whiteSpace=wrap;html=1;" parent="1" vertex="1">
                    <mxGeometry x="270" y="820" width="120" height="60" as="geometry"/>
                </mxCell>
                <mxCell id="OOJPEmCvYnQpd_MHclPF-12" style="edgeStyle=none;html=1;" parent="1" source="3" edge="1">
                    <mxGeometry relative="1" as="geometry">
                        <mxPoint x="700" y="850" as="targetPoint"/>
                    </mxGeometry>
                </mxCell>
                <mxCell id="3" value="Planowanie wstepne" style="rounded=0;whiteSpace=wrap;html=1;" parent="1" vertex="1">
                    <mxGeometry x="480" y="820" width="120" height="60" as="geometry"/>
                </mxCell>
                <mxCell id="OOJPEmCvYnQpd_MHclPF-10" value="" style="endArrow=classic;html=1;entryX=0.5;entryY=0;entryDx=0;entryDy=0;exitX=0.5;exitY=1;exitDx=0;exitDy=0;dashed=1;" parent="1" source="2" target="OOJPEmCvYnQpd_MHclPF-9" edge="1">
                    <mxGeometry width="50" height="50" relative="1" as="geometry">
                        <mxPoint x="305" y="670" as="sourcePoint"/>
                        <mxPoint x="355" y="620" as="targetPoint"/>
                    </mxGeometry>
                </mxCell>
                <mxCell id="OOJPEmCvYnQpd_MHclPF-16" style="edgeStyle=none;html=1;dashed=1;" parent="1" source="OOJPEmCvYnQpd_MHclPF-15" target="OOJPEmCvYnQpd_MHclPF-17" edge="1">
                    <mxGeometry relative="1" as="geometry">
                        <mxPoint x="1350" y="620" as="targetPoint"/>
                    </mxGeometry>
                </mxCell>
                <mxCell id="OOJPEmCvYnQpd_MHclPF-15" value="Przygotowanie &quot;releasu&quot;" style="rounded=0;whiteSpace=wrap;html=1;" parent="1" vertex="1">
                    <mxGeometry x="1290" y="820" width="120" height="60" as="geometry"/>
                </mxCell>
                <mxCell id="OOJPEmCvYnQpd_MHclPF-18" style="edgeStyle=none;html=1;entryX=0;entryY=0.5;entryDx=0;entryDy=0;" parent="1" source="OOJPEmCvYnQpd_MHclPF-17" target="OOJPEmCvYnQpd_MHclPF-19" edge="1">
                    <mxGeometry relative="1" as="geometry">
                        <mxPoint x="1490" y="580" as="targetPoint"/>
                    </mxGeometry>
                </mxCell>
                <mxCell id="OOJPEmCvYnQpd_MHclPF-17" value="Testy akceptacyjne" style="rounded=0;whiteSpace=wrap;html=1;" parent="1" vertex="1">
                    <mxGeometry x="1290" y="550" width="120" height="60" as="geometry"/>
                </mxCell>
                <mxCell id="t8X6_hmyEkohMRzOjcAu-4" style="edgeStyle=none;html=1;exitX=0.5;exitY=1;exitDx=0;exitDy=0;entryX=0.5;entryY=1;entryDx=0;entryDy=0;rounded=0;dashed=1;" parent="1" source="OOJPEmCvYnQpd_MHclPF-19" target="OOJPEmCvYnQpd_MHclPF-40" edge="1">
                    <mxGeometry relative="1" as="geometry">
                        <mxPoint x="760" y="880" as="targetPoint"/>
                        <Array as="points">
                            <mxPoint x="1520" y="960"/>
                            <mxPoint x="1170" y="960"/>
                            <mxPoint x="760" y="960"/>
                            <mxPoint x="700" y="960"/>
                        </Array>
                    </mxGeometry>
                </mxCell>
                <mxCell id="OOJPEmCvYnQpd_MHclPF-22" style="edgeStyle=none;rounded=0;html=1;entryX=0;entryY=0.5;entryDx=0;entryDy=0;" parent="1" source="OOJPEmCvYnQpd_MHclPF-19" target="OOJPEmCvYnQpd_MHclPF-32" edge="1">
                    <mxGeometry relative="1" as="geometry">
                        <mxPoint x="1680" y="580" as="targetPoint"/>
                    </mxGeometry>
                </mxCell>
                <mxCell id="OOJPEmCvYnQpd_MHclPF-29" value="Iteracja zaakceptowana" style="edgeLabel;html=1;align=center;verticalAlign=middle;resizable=0;points=[];" parent="OOJPEmCvYnQpd_MHclPF-22" vertex="1" connectable="0">
                    <mxGeometry x="-0.3283" y="-1" relative="1" as="geometry">
                        <mxPoint x="14" y="-11" as="offset"/>
                    </mxGeometry>
                </mxCell>
                <mxCell id="OOJPEmCvYnQpd_MHclPF-19" value="" style="rhombus;whiteSpace=wrap;html=1;" parent="1" vertex="1">
                    <mxGeometry x="1490" y="550" width="60" height="60" as="geometry"/>
                </mxCell>
                <mxCell id="t8X6_hmyEkohMRzOjcAu-5" value="Iteracja niezaakceptowana" style="edgeLabel;html=1;align=center;verticalAlign=middle;resizable=0;points=[];" parent="1" connectable="0" vertex="1">
                    <mxGeometry x="1530" y="640" as="geometry"/>
                </mxCell>
                <mxCell id="OOJPEmCvYnQpd_MHclPF-24" style="edgeStyle=none;rounded=0;html=1;entryX=0.5;entryY=0;entryDx=0;entryDy=0;dashed=1;" parent="1" source="OOJPEmCvYnQpd_MHclPF-23" target="3" edge="1">
                    <mxGeometry relative="1" as="geometry"/>
                </mxCell>
                <mxCell id="OOJPEmCvYnQpd_MHclPF-23" value="Reewaluacja wymagań" style="rounded=0;whiteSpace=wrap;html=1;" parent="1" vertex="1">
                    <mxGeometry x="480" y="550" width="120" height="60" as="geometry"/>
                </mxCell>
                <mxCell id="OOJPEmCvYnQpd_MHclPF-35" style="edgeStyle=none;rounded=0;html=1;entryX=0;entryY=0.5;entryDx=0;entryDy=0;" edge="1" parent="1" source="OOJPEmCvYnQpd_MHclPF-32" target="OOJPEmCvYnQpd_MHclPF-37">
                    <mxGeometry relative="1" as="geometry">
                        <mxPoint x="1940" y="580" as="targetPoint"/>
                        <Array as="points">
                            <mxPoint x="1870" y="580"/>
                        </Array>
                    </mxGeometry>
                </mxCell>
                <mxCell id="OOJPEmCvYnQpd_MHclPF-36" value="Ostatnia iteracja" style="edgeLabel;html=1;align=center;verticalAlign=middle;resizable=0;points=[];" connectable="0" vertex="1" parent="OOJPEmCvYnQpd_MHclPF-35">
                    <mxGeometry x="-0.3485" relative="1" as="geometry">
                        <mxPoint x="-22" y="-10" as="offset"/>
                    </mxGeometry>
                </mxCell>
                <mxCell id="OOJPEmCvYnQpd_MHclPF-38" style="edgeStyle=none;rounded=0;html=1;entryX=0.5;entryY=0;entryDx=0;entryDy=0;" edge="1" parent="1" source="OOJPEmCvYnQpd_MHclPF-32" target="OOJPEmCvYnQpd_MHclPF-23">
                    <mxGeometry relative="1" as="geometry">
                        <Array as="points">
                            <mxPoint x="1700" y="480"/>
                            <mxPoint x="1350" y="480"/>
                            <mxPoint x="540" y="480"/>
                        </Array>
                    </mxGeometry>
                </mxCell>
                <mxCell id="OOJPEmCvYnQpd_MHclPF-39" value="Projekt wciąż trwa" style="edgeLabel;html=1;align=center;verticalAlign=middle;resizable=0;points=[];" connectable="0" vertex="1" parent="OOJPEmCvYnQpd_MHclPF-38">
                    <mxGeometry x="-0.6841" y="-2" relative="1" as="geometry">
                        <mxPoint x="125" y="52" as="offset"/>
                    </mxGeometry>
                </mxCell>
                <mxCell id="OOJPEmCvYnQpd_MHclPF-32" value="" style="rhombus;whiteSpace=wrap;html=1;" parent="1" vertex="1">
                    <mxGeometry x="1670" y="550" width="60" height="60" as="geometry"/>
                </mxCell>
                <mxCell id="7" style="edgeStyle=none;html=1;exitX=1;exitY=0.5;exitDx=0;exitDy=0;entryX=0;entryY=0.5;entryDx=0;entryDy=0;" edge="1" parent="1" source="OOJPEmCvYnQpd_MHclPF-37" target="4">
                    <mxGeometry relative="1" as="geometry"/>
                </mxCell>
                <mxCell id="OOJPEmCvYnQpd_MHclPF-37" value="Odbiór techniczny" style="rounded=0;whiteSpace=wrap;html=1;" vertex="1" parent="1">
                    <mxGeometry x="1820" y="550" width="120" height="60" as="geometry"/>
                </mxCell>
                <mxCell id="6" style="edgeStyle=none;html=1;" edge="1" parent="1" source="4" target="5">
                    <mxGeometry relative="1" as="geometry"/>
                </mxCell>
                <mxCell id="4" value="Dokonanie płatności" style="rounded=0;whiteSpace=wrap;html=1;" vertex="1" parent="1">
                    <mxGeometry x="2010" y="550" width="120" height="60" as="geometry"/>
                </mxCell>
                <mxCell id="9" style="edgeStyle=none;html=1;exitX=1;exitY=0.5;exitDx=0;exitDy=0;" edge="1" parent="1" source="5" target="8">
                    <mxGeometry relative="1" as="geometry"/>
                </mxCell>
                <mxCell id="5" value="Zaksięgowanie przelewu" style="rounded=0;whiteSpace=wrap;html=1;" vertex="1" parent="1">
                    <mxGeometry x="2010" y="820" width="120" height="60" as="geometry"/>
                </mxCell>
                <mxCell id="11" style="edgeStyle=none;html=1;entryX=0.5;entryY=1;entryDx=0;entryDy=0;" edge="1" parent="1" source="8" target="10">
                    <mxGeometry relative="1" as="geometry"/>
                </mxCell>
                <mxCell id="8" value="Przesłanie dokumentacji" style="rounded=0;whiteSpace=wrap;html=1;" vertex="1" parent="1">
                    <mxGeometry x="2250" y="820" width="120" height="60" as="geometry"/>
                </mxCell>
                <mxCell id="OOJPEmCvYnQpd_MHclPF-44" style="edgeStyle=none;rounded=0;html=1;entryX=0;entryY=0.5;entryDx=0;entryDy=0;" edge="1" parent="1" source="OOJPEmCvYnQpd_MHclPF-40" target="OOJPEmCvYnQpd_MHclPF-41">
                    <mxGeometry relative="1" as="geometry"/>
                </mxCell>
                <mxCell id="OOJPEmCvYnQpd_MHclPF-40" value="Analiza wymagań" style="whiteSpace=wrap;html=1;" vertex="1" parent="1">
                    <mxGeometry x="640" y="820" width="120" height="60" as="geometry"/>
                </mxCell>
                <mxCell id="OOJPEmCvYnQpd_MHclPF-45" style="edgeStyle=none;rounded=0;html=1;entryX=0;entryY=0.5;entryDx=0;entryDy=0;" edge="1" parent="1" source="OOJPEmCvYnQpd_MHclPF-41" target="OOJPEmCvYnQpd_MHclPF-42">
                    <mxGeometry relative="1" as="geometry"/>
                </mxCell>
                <mxCell id="OOJPEmCvYnQpd_MHclPF-41" value="Projektowanie" style="whiteSpace=wrap;html=1;" vertex="1" parent="1">
                    <mxGeometry x="800" y="820" width="120" height="60" as="geometry"/>
                </mxCell>
                <mxCell id="13" style="edgeStyle=none;html=1;exitX=1;exitY=0.5;exitDx=0;exitDy=0;entryX=0;entryY=0.5;entryDx=0;entryDy=0;" edge="1" parent="1" source="10" target="12">
                    <mxGeometry relative="1" as="geometry"/>
                </mxCell>
                <mxCell id="10" value="Odbiór gotowego produktu" style="rounded=0;whiteSpace=wrap;html=1;" vertex="1" parent="1">
                    <mxGeometry x="2250" y="554" width="120" height="60" as="geometry"/>
                </mxCell>
                <mxCell id="12" value="" style="ellipse;whiteSpace=wrap;html=1;aspect=fixed;strokeWidth=4;" vertex="1" parent="1">
                    <mxGeometry x="2450" y="554" width="60" height="60" as="geometry"/>
                </mxCell>
                <mxCell id="OOJPEmCvYnQpd_MHclPF-46" style="edgeStyle=none;rounded=0;html=1;entryX=0;entryY=0.5;entryDx=0;entryDy=0;" edge="1" parent="1" source="OOJPEmCvYnQpd_MHclPF-42" target="OOJPEmCvYnQpd_MHclPF-43">
                    <mxGeometry relative="1" as="geometry"/>
                </mxCell>
                <mxCell id="OOJPEmCvYnQpd_MHclPF-42" value="Implementacja zaplanowanych funkcjonalności" style="whiteSpace=wrap;html=1;" vertex="1" parent="1">
                    <mxGeometry x="960" y="820" width="120" height="60" as="geometry"/>
                </mxCell>
                <mxCell id="14" style="edgeStyle=none;html=1;exitX=1;exitY=0.5;exitDx=0;exitDy=0;entryX=0;entryY=0.5;entryDx=0;entryDy=0;" edge="1" parent="1" source="OOJPEmCvYnQpd_MHclPF-43" target="OOJPEmCvYnQpd_MHclPF-15">
                    <mxGeometry relative="1" as="geometry"/>
                </mxCell>
                <mxCell id="OOJPEmCvYnQpd_MHclPF-43" value="Testowanie (jednostkowe, integracyjne etc.)" style="whiteSpace=wrap;html=1;" vertex="1" parent="1">
                    <mxGeometry x="1120" y="820" width="120" height="60" as="geometry"/>
                </mxCell>
            </root>
        </mxGraphModel>
    </diagram>
</mxfile>